Coordinates
version=1
nRows=8
nColumns=60
inDegrees=yes

Units are S.I. units (second, meters, Newtons, ...)
If the header above contains a line with 'inDegrees', this indicates whether rotational values are in degrees (yes) or radians (no).

endheader
time	pelvis_tilt	pelvis_list	pelvis_rotation	pelvis_tx	pelvis_ty	pelvis_tz	hip_flexion_r	hip_adduction_r	hip_rotation_r	knee_angle_r_beta	knee_angle_r	ankle_angle_r	subtalar_angle_r	mtp_angle_r	hip_flexion_l	hip_adduction_l	hip_rotation_l	knee_angle_l_beta	knee_angle_l	ankle_angle_l	subtalar_angle_l	mtp_angle_l	L5_S1_Flex_Ext	L5_S1_Lat_Bending	L5_S1_axial_rotation	L4_L5_Flex_Ext	L4_L5_Lat_Bending	L4_L5_axial_rotation	L3_L4_Flex_Ext	L3_L4_Lat_Bending	L3_L4_axial_rotation	L2_L3_Flex_Ext	L2_L3_Lat_Bending	L2_L3_axial_rotation	L1_L2_Flex_Ext	L1_L2_Lat_Bending	L1_L2_axial_rotation	L1_T12_Flex_Ext	L1_T12_Lat_Bending	L1_T12_axial_rotation	Abs_r3	Abs_r2	Abs_r1	Abs_t1	Abs_t2	arm_flex_r	arm_add_r	arm_rot_r	elbow_flex_r	pro_sup_r	wrist_flex_r	wrist_dev_r	arm_flex_l	arm_add_l	arm_rot_l	elbow_flex_l	pro_sup_l	wrist_flex_l	wrist_dev_l
    128.27000000	     -0.49029803	     -1.14654371	     90.91962294	      0.40277874	      0.93167925	      0.30151467	     15.25322055	     -5.42177772	      2.20806195	      0.33069959	    -18.94769076	      5.66037903	      0.00000000	      0.00000000	     12.47596887	     -4.59507655	     -1.52844121	      0.21691955	    -12.42857461	      4.59982466	      0.00000000	      0.00000000	     -6.96411632	     -0.08363455	     -0.13782439	    -12.93306042	     -0.11123396	     -0.14643841	    -11.44134670	     -0.20334905	     -0.14643841	     -7.95928854	     -0.20334905	     -0.12059634	     -6.46687841	     -0.17054758	     -0.11198232	     -3.97929607	     -0.12954992	     -0.10336829	    -49.74398646	     -0.94609079	     -0.76653790	      0.00000000	      0.00000000	     90.67675076	    -19.33139705	     26.55321133	     38.51163873	     54.14893739	     20.30505216	     22.48641188	     93.27330292	    -16.68020445	     33.69515474	     32.01652244	     44.80762538	     29.72953579	     13.69421336
    128.28000000	     -0.46910687	     -1.37356207	     91.03413086	      0.40280219	      0.93140642	      0.30367542	     15.57013663	     -5.41398341	      2.15441449	      0.32878122	    -18.83777640	      5.65274327	      0.00000000	      0.00000000	     12.78816872	     -4.61349177	     -1.59975956	      0.21349742	    -12.23250090	      4.57699910	      0.00000000	      0.00000000	     -6.98114483	     -0.08340247	     -0.15345254	    -12.96468406	     -0.11092528	     -0.16304333	    -11.46932284	     -0.20278475	     -0.16304333	     -7.97875042	     -0.20278475	     -0.13427098	     -6.48269109	     -0.17007431	     -0.12468019	     -3.98902615	     -0.12919042	     -0.11508941	    -49.86561940	     -0.94346537	     -0.85345701	      0.00000000	      0.00000000	     91.22742171	    -19.26211264	     26.51380088	     38.50678100	     54.14254466	     20.31226379	     22.46440014	     93.89502060	    -16.56228118	     33.65861659	     32.09955808	     44.81899965	     29.71889526	     13.68553310
    128.29000000	     -0.46246704	     -1.87890918	     91.20642886	      0.40275349	      0.93071944	      0.30617626	     16.26557797	     -5.43983847	      2.07130080	      0.32839706	    -18.81576538	      5.13812652	      0.00000000	      0.00000000	     13.25913497	     -4.56642299	     -1.17978940	      0.20332196	    -11.64949002	      3.67184270	      0.00000000	      0.00000000	     -6.92908649	     -0.08266249	     -0.19798714	    -12.86800652	     -0.10994111	     -0.21036134	    -11.38379620	     -0.20098557	     -0.21036134	     -7.91925295	     -0.20098557	     -0.17323875	     -6.43434972	     -0.16856534	     -0.16086455	     -3.95928002	     -0.12804419	     -0.14849035	    -49.49377190	     -0.93509459	     -1.10114507	      0.00000000	      0.00000000	     92.18167429	    -18.71579633	     27.04133889	     36.92007747	     54.12777908	     20.37359832	     22.56191829	     94.73322586	    -16.31927722	     34.35026810	     31.07138008	     45.03456436	     29.49126520	     13.97683914
    128.30000000	     -0.44258792	     -2.12668625	     91.36279016	      0.40272237	      0.93028668	      0.30845846	     16.60587373	     -5.45364095	      2.00644350	      0.32647264	    -18.70550464	      5.07321827	      0.00000000	      0.00000000	     13.57153835	     -4.55872646	     -1.08223507	      0.19874773	    -11.38740627	      3.44052626	      0.00000000	      0.00000000	     -6.91814864	     -0.08136139	     -0.24442568	    -12.84769385	     -0.10821065	     -0.25970229	    -11.36582641	     -0.19782209	     -0.25970229	     -7.90675209	     -0.19782209	     -0.21387247	     -6.42419283	     -0.16591215	     -0.19859587	     -3.95303014	     -0.12602880	     -0.18331926	    -49.41564395	     -0.92037636	     -1.35942232	      0.00000000	      0.00000000	     93.05279055	    -18.22498123	     27.46077726	     35.72774387	     54.09707751	     20.48140594	     22.63621211	     95.55815664	    -16.22709229	     35.10659847	     30.41967537	     45.23965240	     29.20175664	     14.30663857
    128.31000000	     -0.39996176	     -2.36197322	     91.51166986	      0.40271553	      0.92991735	      0.31068543	     16.90865252	     -5.42951583	      1.94946730	      0.32380868	    -18.55287100	      4.87972664	      0.00000000	      0.00000000	     13.84542315	     -4.56429867	     -0.98587175	      0.19309511	    -11.06353483	      3.13654074	      0.00000000	      0.00000000	     -6.90503678	     -0.07853110	     -0.28307578	    -12.82334381	     -0.10444636	     -0.30076802	    -11.34428493	     -0.19094051	     -0.30076802	     -7.89176654	     -0.19094051	     -0.24769131	     -6.41201716	     -0.16014062	     -0.22999907	     -3.94553802	     -0.12164467	     -0.21230684	    -49.32198724	     -0.88835949	     -1.57438257	      0.00000000	      0.00000000	     93.75641990	    -17.85482914	     27.75481971	     34.86449145	     54.06776814	     20.57440900	     22.69595231	     96.23484791	    -16.15328946	     35.78845278	     29.99863705	     45.36535315	     28.83307247	     14.64502640
    128.32000000	     -0.36742279	     -2.49804486	     91.65827847	      0.40266753	      0.92962846	      0.31280320	     17.08837935	     -5.42713834	      1.89792952	      0.32122793	    -18.40500450	      4.76891589	      0.00000000	      0.00000000	     14.02408525	     -4.56019408	     -0.92995537	      0.18847448	    -10.79879208	      2.92890311	      0.00000000	      0.00000000	     -6.89902163	     -0.07620342	     -0.32758440	    -12.81217306	     -0.10135054	     -0.34805843	    -11.33440263	     -0.18528098	     -0.34805843	     -7.88489182	     -0.18528098	     -0.28663635	     -6.40643148	     -0.15539400	     -0.26616233	     -3.94210096	     -0.11803909	     -0.24568830	    -49.27902158	     -0.86202828	     -1.82192617	      0.00000000	      0.00000000	     94.41672330	    -17.42201997	     28.10720015	     33.89689190	     54.01391774	     20.69028208	     22.75446290	     96.92917856	    -16.16090925	     36.74897465	     29.61615327	     45.35488685	     27.97188282	     15.27156609
    128.33000000	     -0.33036852	     -2.62316849	     91.77837295	      0.40262051	      0.92936224	      0.31478871	     17.25501399	     -5.41562759	      1.86551879	      0.31892126	    -18.27284210	      4.75659664	      0.00000000	      0.00000000	     14.22438304	     -4.56440267	     -1.01154642	      0.18546925	    -10.62660509	      2.90514976	      0.00000000	      0.00000000	     -6.89444265	     -0.07241915	     -0.34726566	    -12.80366944	     -0.09631747	     -0.36896977	    -11.32687983	     -0.17607992	     -0.36896977	     -7.87965850	     -0.17607992	     -0.30385746	     -6.40217944	     -0.14767713	     -0.28215335	     -3.93948453	     -0.11217726	     -0.26044925	    -49.24631439	     -0.81921991	     -1.93138744	      0.00000000	      0.00000000	     94.69414217	    -17.36956471	     28.09088972	     33.88031243	     54.01152194	     20.68473825	     22.75088114	     97.29230109	    -16.08880266	     36.75561932	     29.63494653	     45.34718099	     27.91994597	     15.29280840
    128.34000000	     -0.25850521	     -2.87413829	     91.92571949	      0.40252482	      0.92897249	      0.31669957	     17.42262954	     -5.38440329	      1.81945598	      0.31169247	    -17.85866317	      4.35976967	      0.00000000	      0.00000000	     14.42685784	     -4.58490831	     -0.77731332	      0.17732677	    -10.16007543	      2.32642672	      0.00000000	      0.00000000	     -6.84271422	     -0.06344726	     -0.38986251	    -12.70760459	     -0.08438486	     -0.41422891	    -11.24189520	     -0.15426568	     -0.41422891	     -7.82053809	     -0.15426568	     -0.34112969	     -6.35414443	     -0.12938166	     -0.31676329	     -3.90992691	     -0.09827981	     -0.29239688	    -48.87682343	     -0.71772815	     -2.16829830	      0.00000000	      0.00000000	     95.06533812	    -16.83797630	     28.33718853	     32.80912939	     54.00771396	     20.50477247	     22.82963571	     97.64430985	    -15.98879438	     37.52894637	     28.91978644	     45.23535947	     27.03069046	     15.89819441
